# xmcd
# 
# Track frame offsets:
#     150
#     17305
#     31750
#     40840
#     60085
#     71607
#     91502
#     109937
#     131410
#     149845
# 
# Disc length: 2262
# 
# Revision: 13
# Processed by: cddbd v1.5.2PL0 Copyright (c) Steve Scherf et al.
# Submitted via: fre:ac v1.1beta2
# 
DISCID=7608d40a
DTITLE=Garth Brooks - The Chase
DYEAR=1992
DGENRE=Country
TTITLE0=We Shall Be Free
TTITLE1=Somewhere Other Than The Night
TTITLE2=Mr. Right
TTITLE3=Every Now And Then
TTITLE4=Walking After Midnight
TTITLE5=Dixie Chicken
TTITLE6=Learning To Live Again
TTITLE7=That Summer
TTITLE8=Night Rider's Lament
TTITLE9=Face To Face
EXTD=
EXTT0=
EXTT1=
EXTT2=
EXTT3=
EXTT4=
EXTT5=
EXTT6=
EXTT7=
EXTT8=
EXTT9=
PLAYORDER=
